<?xml version="1.0" standalone="no"?>
<!DOCTYPE svg PUBLIC "-//W3C//DTD SVG 20010904//EN"
 "http://www.w3.org/TR/2001/REC-SVG-20010904/DTD/svg10.dtd">
<svg version="1.0" xmlns="http://www.w3.org/2000/svg"
 width="101.000000pt" height="101.000000pt" viewBox="0 0 101.000000 101.000000"
 preserveAspectRatio="xMidYMid meet">
<metadata>
Created by potrace 1.11, written by Peter Selinger 2001-2013
</metadata>
<g transform="translate(0.000000,101.000000) scale(0.100000,-0.100000)"
fill="#000000" stroke="none">
<path d="M253 989 c-66 -13 -126 -43 -168 -84 -46 -46 -64 -88 -69 -161 -11
-140 56 -224 251 -319 173 -84 199 -109 207 -195 5 -54 -11 -95 -49 -128 -43
-39 -90 -52 -162 -46 -87 6 -124 36 -174 139 -30 63 -46 85 -60 85 -13 0 -19
-7 -20 -22 -1 -13 -3 -58 -5 -100 -3 -76 -3 -78 24 -92 69 -35 147 -50 267
-50 101 0 129 3 176 22 119 48 182 134 182 251 0 138 -53 201 -258 301 -150
74 -179 96 -200 156 -26 75 -2 143 63 181 37 22 58 27 108 26 81 0 102 -17
156 -121 34 -66 47 -82 62 -80 15 2 21 12 23 38 11 153 14 136 -31 159 -92 46
-217 61 -323 40z"/>
<path d="M828 232 c-16 -9 -35 -32 -44 -51 -64 -133 129 -234 206 -108 24 39
25 68 5 111 -29 61 -110 84 -167 48z"/>
</g>
</svg>
